# xmcd CD database file
#
# Track frame offsets:
#	150
#	14797
#	27000
#	42269
#	56007
#	70573
#	84933
#	99544
#	112256
#	125276
#	139600
#	154763
#	167342
#	180375
#	194497
#	209406
#	221272
#	233375
#	245226
#	257753
#	270165
#	280806
#	291987
#	306160
#
# Disc length: 4204 seconds
#
# Revision: 0
# Processed by: cddbd v1.5.2PL0 Copyright (c) Steve Scherf et al.
# Submitted via: Feurio! 1.68 - http://www.feurio.com
#
DISCID=50106a18
DTITLE=Various Artist - Bob Geddins' Cava-Tone Records Story
DYEAR=1900
DGENRE=Blues
TTITLE0=Lowell Fulson - Prison Bound
TTITLE1=Lowell Fulson - My Baby Left Me
TTITLE2=Bob Geddins' Cavaliers with Jimmy Wilson - Nobody's Business
TTITLE3=Bob Geddins' Cavaliers with Jimmy Wilson - Ghost Riders
TTITLE4=Jimmy McCracklin - Bad Luck And Trouble
TTITLE5=Jimmy McCracklin - Railroad Blues
TTITLE6=Ulysses James - Poor Boy
TTITLE7=Lowell Fulson - Stormin' And Rainin'
TTITLE8=Jimmy McCracklin - Jimmy's Blues
TTITLE9=Emery Franklin - Lonesome Blues
TTITLE10=Jimmy Wilson with 'Scatman' Crothers - It's A Sin To Tell A Lie
TTITLE11=Jimmy Wilson - Mistake in Life
TTITLE12=Roy Hawkins and The Hawk's Men - Ain't No Fault Of Mine
TTITLE13=Roy Hawkins and The Hawk's Men - They Raided The Joint
TTITLE14=Saunders King - September Song
TTITLE15=Saunders King - Nobody Wants Me
TTITLE16=Saunders King - When Your Lover Has Gone
TTITLE17=Saunders King - Big Fat Butterfly
TTITLE18=Rising Star Gospel Singers - Brother Moses
TTITLE19=Rising Star Gospel Singers - While The Blood Is Running Warm In Your 
TTITLE19=Veins
TTITLE20=Rising Star Gospel Singers - I Trust In God
TTITLE21=Rising Star Gospel Singers - Telephone Line
TTITLE22=West Side Trio - So Tired I Could Cry
TTITLE23=West Side Trio - West Side Jump
EXTD=
EXTT0=
EXTT1=
EXTT2=
EXTT3=
EXTT4=
EXTT5=
EXTT6=
EXTT7=
EXTT8=
EXTT9=
EXTT10=
EXTT11=
EXTT12=
EXTT13=
EXTT14=
EXTT15=
EXTT16=
EXTT17=
EXTT18=
EXTT19=
EXTT20=
EXTT21=
EXTT22=
EXTT23=
PLAYORDER=
